<svg width="48" height="48" fill="none" xmlns="http://www.w3.org/2000/svg"><path d="M14 44c-1.1 0-2.042-.392-2.826-1.176C10.39 42.04 9.999 41.099 10 40c0-1.1.392-2.042 1.176-2.826C11.96 36.39 12.901 35.999 14 36c1.1 0 2.042.392 2.826 1.176.784.784 1.175 1.725 1.174 2.824 0 1.1-.392 2.042-1.176 2.826C16.04 43.61 15.099 44.001 14 44Zm20 0c-1.1 0-2.042-.392-2.826-1.176C30.39 42.04 29.999 41.099 30 40c0-1.1.392-2.042 1.176-2.826C31.96 36.39 32.901 35.999 34 36c1.1 0 2.042.392 2.826 1.176.784.784 1.175 1.725 1.174 2.824 0 1.1-.392 2.042-1.176 2.826C36.04 43.61 35.099 44.001 34 44ZM12.3 12l4.8 10h14l5.5-10H12.3Zm-1.9-4h29.5c.767 0 1.35.342 1.75 1.026.4.684.417 1.375.05 2.074l-7.1 12.8a4.004 4.004 0 0 1-1.476 1.55A3.891 3.891 0 0 1 31.1 26H16.2L14 30h24v4H14c-1.5 0-2.633-.659-3.4-1.976-.767-1.317-.8-2.625-.1-3.924l2.7-4.9L6 8H2V4h6.5l1.9 4Z" fill="#000"/></svg>