<svg width="36" height="36" fill="none" xmlns="http://www.w3.org/2000/svg"><path d="m18 0 18 18-18 18L0 18 18 0Z" fill="#FBFBFB"/><path d="m18 0 18 18-18 18L0 18 18 0Z" fill="#FBFBFB"/><path d="m18 0 18 18-18 18L0 18 18 0Z" fill="#FBFBFB"/><path d="m18 0 18 18-18 18L0 18 18 0Z" fill="#FBFBFB"/><path d="m18 0 18 18-18 18L0 18 18 0Z" fill="#FBFBFB"/><path d="m18 0 18 18-18 18L0 18 18 0Z" fill="#FBFBFB"/><path d="m18 0 18 18-18 18L0 18 18 0Z" fill="#FBFBFB"/><path d="m18 0 18 18-18 18L0 18 18 0Z" fill="#FBFBFB"/><path d="m18 0 18 18-18 18L0 18 18 0Z" fill="#FBFBFB"/></svg>