<svg width="34" height="34" fill="none" xmlns="http://www.w3.org/2000/svg"><path d="m17 0 17 17-17 17L0 17 17 0Z" fill="#362310"/><path d="m17 0 17 17-17 17L0 17 17 0Z" fill="#362310"/><path d="m17 0 17 17-17 17L0 17 17 0Z" fill="#362310"/><path d="m17 0 17 17-17 17L0 17 17 0Z" fill="#362310"/><path d="m17 0 17 17-17 17L0 17 17 0Z" fill="#362310"/><path d="m17 0 17 17-17 17L0 17 17 0Z" fill="#362310"/><path d="m17 0 17 17-17 17L0 17 17 0Z" fill="#362310"/><path d="m17 0 17 17-17 17L0 17 17 0Z" fill="#362310"/><path d="m17 0 17 17-17 17L0 17 17 0Z" fill="#362310"/></svg>