<svg width="24" height="24" fill="none" xmlns="http://www.w3.org/2000/svg"><g clip-path="url('#clip0_398_34')"><path d="M20 6a1 1 0 0 1 .117 1.993L20 8h-.081l-.92 11a3 3 0 0 1-2.823 2.995L16 22H8c-1.598 0-2.904-1.249-2.992-2.75l-.005-.167L4.08 8H4a1 1 0 0 1-.117-1.993L4 6h16Zm-9.49 5.14a1 1 0 0 0-1.217 1.567L10.585 14l-1.292 1.293-.083.094a1 1 0 0 0 1.497 1.32L12 15.415l1.293 1.292.094.083a1 1 0 0 0 1.32-1.497L13.415 14l1.292-1.293.083-.094a1 1 0 0 0-1.497-1.32L12 12.585l-1.293-1.292-.094-.083-.102-.07ZM14 2a2 2 0 0 1 2 2 1 1 0 0 1-1.993.117L14 4h-4l-.007.117A1 1 0 0 1 8 4a2 2 0 0 1 1.85-1.995L10 2h4Z" fill="#000"/></g><defs><clipPath id="clip0_398_34"><path fill="#fff" d="M0 0h24v24H0z"/></clipPath></defs></svg>