<svg width="20" height="20" fill="none" xmlns="http://www.w3.org/2000/svg"><path d="m10 14 1.4-1.4L9.8 11H14V9H9.8l1.6-1.6L10 6l-4 4 4 4Zm0 6a9.733 9.733 0 0 1-3.9-.788 10.092 10.092 0 0 1-3.175-2.137c-.9-.9-1.612-1.958-2.137-3.175A9.732 9.732 0 0 1 0 10c0-1.383.263-2.683.788-3.9a10.092 10.092 0 0 1 2.137-3.175c.9-.9 1.958-1.613 3.175-2.138A9.743 9.743 0 0 1 10 0c1.383 0 2.683.262 3.9.787a10.105 10.105 0 0 1 3.175 2.138c.9.9 1.612 1.958 2.137 3.175A9.733 9.733 0 0 1 20 10a9.733 9.733 0 0 1-.788 3.9 10.092 10.092 0 0 1-2.137 3.175c-.9.9-1.958 1.612-3.175 2.137A9.733 9.733 0 0 1 10 20Z" fill="#000"/></svg>